<svg width="691" height="880" viewBox="0 0 691 880" fill="none" xmlns="http://www.w3.org/2000/svg">
<g opacity="0.1">
<path d="M523.924 517.661L525.024 520.453L527.815 519.353L547.524 511.59C643.715 473.699 690.977 365.004 653.086 268.813L644.985 248.248L643.885 245.457L641.094 246.556C616.134 256.388 587.929 244.124 578.097 219.164C568.265 194.204 580.529 165.999 605.489 156.167L653.475 137.265C678.435 127.433 706.64 139.696 716.472 164.657L743.475 233.208C801.03 379.32 729.241 544.424 583.129 601.979L470.24 646.447L425.434 532.701C387.544 436.51 278.849 389.248 182.658 427.139L179.897 428.227C168.049 432.894 162.227 446.282 166.894 458.129L233.769 627.901C235.14 631.381 239.073 633.092 242.554 631.72L335.015 595.299C359.975 585.467 388.18 597.731 398.012 622.691C407.844 647.652 395.58 675.856 370.62 685.688L209.972 748.97C194.229 755.171 176.441 747.436 170.24 731.694L60.7534 453.746C45.1217 414.063 64.6195 369.221 104.303 353.589L147.052 336.75C293.164 279.195 458.269 350.984 515.823 497.096L523.924 517.661Z" stroke="#4545C2" stroke-width="6" stroke-linecap="square"/>
</g>
</svg>
