<svg width="100" height="100" viewBox="0 0 100 100" fill="none" xmlns="http://www.w3.org/2000/svg">
<path fill-rule="evenodd" clip-rule="evenodd" d="M88.8889 2H11.1111C6.07918 2 2 6.07918 2 11.1111V88.8889C2 93.9208 6.07918 98 11.1111 98H88.8889C93.9208 98 98 93.9208 98 88.8889V11.1111C98 6.07918 93.9208 2 88.8889 2ZM11.1111 0C4.97461 0 0 4.97461 0 11.1111V88.8889C0 95.0254 4.97461 100 11.1111 100H88.8889C95.0254 100 100 95.0254 100 88.8889V11.1111C100 4.97461 95.0254 0 88.8889 0H11.1111Z" fill="#E0E0EF"/>
<path d="M28.8524 42.8911C28.852 41.6963 29.0853 40.5132 29.5389 39.4092C29.9925 38.3053 30.6574 37.3022 31.4958 36.4574C32.3342 35.6125 33.3296 34.9424 34.4251 34.4853C35.5206 34.0283 36.6947 33.7932 37.8804 33.7935C40.2747 33.7935 42.5711 34.752 44.2641 36.4582C45.9572 38.1643 46.9084 40.4783 46.9084 42.8911V48.3798H53.0756L53.0757 42.8911C53.0757 40.4783 54.0268 38.1643 55.7199 36.4582C57.413 34.752 59.7093 33.7935 62.1036 33.7935C63.2894 33.7932 64.4637 34.0282 65.5594 34.4853C66.655 34.9423 67.6505 35.6124 68.4892 36.4572C69.3278 37.302 69.993 38.3051 70.4468 39.409C70.9007 40.513 71.1343 41.6962 71.1343 42.8911L71.1477 48.3798H77.3149V42.875C77.3149 38.8096 75.7123 34.9108 72.8596 32.0361C70.007 29.1615 66.1379 27.5465 62.1036 27.5465C58.0722 27.5508 54.2072 29.1676 51.3581 32.0418C50.8662 32.538 50.4116 33.0646 49.996 33.6172C49.5781 33.0609 49.1221 32.5329 48.6307 32.0371C47.2195 30.6135 45.5437 29.4841 43.6991 28.7136C41.8544 27.9431 39.8772 27.5465 37.8804 27.5465C35.8836 27.5465 33.9063 27.9431 32.0617 28.7136C30.2171 29.4841 28.5413 30.6135 27.1301 32.0371C25.7189 33.4607 24.5999 35.1506 23.8372 37.0103C23.0745 38.8699 22.6831 40.8628 22.6852 42.875V48.3798H28.8524V42.8911Z" fill="#E0E0EF"/>
<path d="M22.2223 53.0094H77.7778V57.639H22.2223V53.0094Z" fill="#E0E0EF"/>
<path d="M36.4221 62.8863C36.973 63.2248 37.4059 63.7252 37.6616 64.319C37.976 65.0575 38.1269 65.8553 38.1038 66.6576V72.3119H35.0264V67.0787C35.0581 66.6 34.9264 66.1248 34.6529 65.7307C34.5226 65.5745 34.3573 65.4513 34.1706 65.3708C33.9838 65.2903 33.7807 65.2548 33.5777 65.2672C33.2979 65.2652 33.0231 65.3403 32.7832 65.4844C32.5435 65.6299 32.3448 65.8341 32.2058 66.0776C32.062 66.3206 31.9717 66.5914 31.941 66.8721V72.3066H28.8635V67.0787C28.8953 66.6 28.7636 66.1248 28.4901 65.7307C28.3615 65.5766 28.1989 65.4545 28.015 65.3741C27.8312 65.2937 27.6312 65.2571 27.4308 65.2672C27.1272 65.2629 26.8292 65.3496 26.5753 65.5161C26.3217 65.6807 26.1169 65.9103 25.9821 66.1809C25.8424 66.4556 25.7707 66.7599 25.7729 67.0681V72.3119H22.6954V62.6664H25.0339L25.3968 63.6146C26.1973 62.8439 27.2651 62.4131 28.3762 62.4122C28.9634 62.4014 29.5443 62.5341 30.0686 62.7989C30.5645 63.061 30.9801 63.4528 31.271 63.9324C31.6673 63.4557 32.1661 63.0746 32.7302 62.8174C33.2985 62.55 33.919 62.4116 34.547 62.4122C35.2039 62.3934 35.8531 62.5576 36.4221 62.8863Z" fill="#E0E0EF"/>
<path fill-rule="evenodd" clip-rule="evenodd" d="M45.3144 69.4438C44.913 69.1755 44.6136 68.78 44.4643 68.3208L51.0085 68.3182C51.0627 67.9783 51.0902 67.6347 51.0906 67.2906C51.1084 66.3932 50.9152 65.5042 50.5265 64.6952C50.1622 63.9557 49.5847 63.3422 48.8686 62.934C48.0702 62.4936 47.1686 62.2751 46.2572 62.301C45.3818 62.2876 44.5208 62.5246 43.7757 62.9843C43.0473 63.4367 42.4544 64.0771 42.0595 64.8382C41.6447 65.6238 41.4317 66.5002 41.4398 67.3886C41.4333 68.2689 41.658 69.1356 42.0913 69.9019C42.5181 70.6651 43.1419 71.2998 43.8975 71.7399C44.6879 72.2003 45.5889 72.4365 46.5035 72.4232C47.1655 72.4303 47.8232 72.3173 48.4448 72.0895C49.023 71.8781 49.5559 71.5591 50.0153 71.1493L48.6143 69.1259C48.3589 69.3492 48.068 69.5282 47.7536 69.6556C47.4159 69.7858 47.056 69.8488 46.6942 69.841C46.2048 69.8505 45.7239 69.7121 45.3144 69.4438ZM44.4086 66.3266C44.5119 65.8729 44.7636 65.4666 45.1237 65.1719V65.1586C45.4839 64.8799 45.9291 64.734 46.3844 64.7455C46.8239 64.7295 47.2547 64.8703 47.6 65.1427C47.9474 65.453 48.1829 65.869 48.27 66.3266H44.4086Z" fill="#E0E0EF"/>
<path d="M62.3781 62.935C62.9594 63.2729 63.4268 63.7763 63.7208 64.381C64.0559 65.0821 64.2202 65.8527 64.2002 66.6295V72.2838H61.1227V67.1857C61.1526 66.6691 60.9925 66.1595 60.6725 65.7529C60.5209 65.5821 60.3331 65.4474 60.1228 65.3585C59.9125 65.2696 59.685 65.2288 59.4569 65.2391C59.1143 65.2363 58.7767 65.322 58.477 65.488C58.1861 65.6457 57.9414 65.8767 57.7672 66.1581C57.597 66.421 57.5052 66.7268 57.5024 67.04V72.2838H54.4249V62.6383H56.7926L57.2402 63.7957C57.6448 63.371 58.135 63.0371 58.6783 62.8158C59.2135 62.5761 59.7921 62.4481 60.3785 62.4397C61.0773 62.4229 61.7679 62.5939 62.3781 62.935Z" fill="#E0E0EF"/>
<path d="M77.3043 62.4347H74.2268L74.2321 67.6785C74.229 67.9924 74.1372 68.2991 73.9673 68.5631C73.7923 68.8431 73.5478 69.073 73.2575 69.2305C72.9594 69.3985 72.6224 69.4852 72.2803 69.4821C72.0522 69.4924 71.8246 69.4515 71.6143 69.3627C71.404 69.2738 71.2162 69.139 71.0647 68.9683C70.7425 68.5618 70.5821 68.0505 70.6144 67.5329V62.4347H67.5369V68.089C67.5168 68.8656 67.6802 69.6359 68.0137 70.3375C68.3069 70.9435 68.7744 71.4479 69.3564 71.7862C69.9646 72.1279 70.6532 72.3007 71.3507 72.2868C71.9381 72.2771 72.5174 72.1483 73.0536 71.908C73.5965 71.6873 74.0866 71.3543 74.4917 70.9308L74.9366 72.0855H77.3043V62.4347Z" fill="#E0E0EF"/>
</svg>
