<svg width="160" height="48" viewBox="0 0 160 48" fill="none" xmlns="http://www.w3.org/2000/svg">
<path d="M160 8H139.047C141.524 8 143.533 10.0082 143.533 12.4854L143.533 12.5177V34.8801L143.533 34.9124C143.533 37.3896 141.524 39.3978 139.047 39.3978H160C158.42 38.1189 157.036 36.6062 155.902 34.9124H148.018V25.9416H152.627C152.545 25.2052 152.503 24.4569 152.503 23.6989C152.503 22.9408 152.545 22.1925 152.627 21.4562H148.018V12.4854H155.902C157.036 10.7915 158.42 9.27886 160 8Z" fill="#E0E0EF"/>
<path d="M121.106 21.4562C118.629 21.4562 116.62 19.448 116.62 16.9708C116.62 14.4936 118.629 12.4854 121.106 12.4854L121.126 12.4854L130.076 12.4854C130.076 10.0082 132.085 8 134.562 8H121.106C116.151 8 112.135 12.0164 112.135 16.9708C112.135 21.9252 116.151 25.9416 121.106 25.9416L125.591 25.9416C128.068 25.9416 130.077 27.9498 130.077 30.427C130.077 32.9042 128.068 34.9124 125.591 34.9124L116.62 34.9124C116.62 37.3858 114.618 39.3916 112.147 39.3978H125.591C130.546 39.3978 134.562 35.3814 134.562 30.427C134.562 25.4725 130.546 21.4562 125.591 21.4562L121.106 21.4562Z" fill="#E0E0EF"/>
<path d="M76.2516 34.9406V12.4854C76.2516 10.0082 78.2598 8 80.737 8H67.2809C69.7581 8.00005 71.7662 10.0082 71.7662 12.4854V34.9124C71.7662 37.3858 69.7641 39.3916 67.2922 39.3978H80.7255C78.2629 39.3916 76.2668 37.401 76.2516 34.9406Z" fill="#E0E0EF"/>
<path fill-rule="evenodd" clip-rule="evenodd" d="M89.7079 12.4854C89.7079 10.0082 87.6997 8 85.2225 8H98.6786C98.6785 8 98.6787 8 98.6786 8C103.633 8 107.65 12.0164 107.65 16.9708C107.65 21.9252 103.633 25.9416 98.6788 25.9416H94.1934V34.9124C94.1934 37.3858 96.1955 39.3916 98.6674 39.3978H85.2341C87.6967 39.3916 89.6929 37.4009 89.708 34.9404L89.7079 12.4854ZM94.1934 21.4562H98.6788C101.156 21.4561 103.164 19.448 103.164 16.9708C103.164 14.4937 101.156 12.4855 98.6788 12.4854L94.1934 12.4854V21.4562Z" fill="#E0E0EF"/>
<path d="M4.48539 12.4854C4.48539 10.0082 2.47722 8 0 8H20.9528C19.3724 9.27886 17.9889 10.7915 16.8551 12.4854H8.97079V21.4562H13.5794C13.498 22.1925 13.4562 22.9408 13.4562 23.6989C13.4562 24.4569 13.498 25.2052 13.5794 25.9416H8.97079V34.9124H16.8551C17.9889 36.6062 19.3724 38.1189 20.9528 39.3978H0C2.47722 39.3978 4.48539 37.3896 4.48539 34.9124V12.4854Z" fill="#E0E0EF"/>
<path d="M49.3393 33.4111C46.6811 36.7824 42.6705 39.0376 38.1258 39.3583V39.3978H62.7955V30.4525C62.7817 32.918 60.7788 34.9123 58.3101 34.9123L49.3393 34.9124V33.4111Z" fill="#E0E0EF"/>
<path d="M35.3224 39.3087C34.7698 39.3676 34.2087 39.3978 33.6405 39.3978C24.9702 39.3978 17.9416 32.3691 17.9416 23.6989C17.9416 15.0286 24.9702 8 33.6405 8C34.2087 8 34.7698 8.03019 35.3224 8.08905C27.4431 8.92832 21.3056 15.5969 21.3056 23.6989C21.3056 31.8009 27.4431 38.4694 35.3224 39.3087Z" fill="#E0E0EF"/>
<path d="M38.1259 8.03944C42.6706 8.36022 46.6812 10.6154 49.3393 13.9867V12.4854C49.3393 10.0082 51.3475 8 53.8247 8H38.1259V8.03944Z" fill="#E0E0EF"/>
<path d="M29.1551 19.2135C27.9165 19.2135 26.9124 20.2176 26.9124 21.4562V30.427L26.9124 24.8203C26.9124 23.5817 27.9165 22.5776 29.1551 22.5776C30.391 22.5776 31.3934 23.5773 31.3978 24.8122V21.4562C31.3978 20.2176 30.3937 19.2135 29.1551 19.2135Z" fill="#E0E0EF"/>
<path d="M35.8832 32.6697V22.5776C35.8832 23.8162 34.8791 24.8203 33.6405 24.8203C32.4019 24.8203 31.3978 23.8162 31.3978 22.5776V32.6697C31.3978 33.9083 32.4019 34.9124 33.6405 34.9124C34.8791 34.9124 35.8832 33.9083 35.8832 32.6697Z" fill="#E0E0EF"/>
<path d="M38.1259 12.4854C36.8873 12.4854 35.8832 13.4895 35.8832 14.7281V30.427L35.8833 24.8203C35.8833 23.5817 36.8874 22.5776 38.126 22.5776C39.3574 22.5776 40.357 23.5701 40.3686 24.7988V14.7281C40.3686 13.4895 39.3645 12.4854 38.1259 12.4854Z" fill="#E0E0EF"/>
<path d="M44.854 28.1843V22.5776C44.854 23.8162 43.8499 24.8203 42.6113 24.8203C41.3727 24.8203 40.3686 23.8162 40.3686 22.5776V28.1843C40.3686 29.4229 41.3727 30.427 42.6113 30.427C43.8499 30.427 44.854 29.4229 44.854 28.1843Z" fill="#E0E0EF"/>
<path d="M47.0967 19.2135C45.858 19.2135 44.854 20.2176 44.854 21.4562V24.804C44.8627 23.5729 45.8634 22.5776 47.0966 22.5776C48.3352 22.5776 49.3393 23.5817 49.3393 24.8203V30.427L49.3394 21.4562C49.3394 20.2176 48.3353 19.2135 47.0967 19.2135Z" fill="#E0E0EF"/>
</svg>
