<svg width="160" height="48" viewBox="0 0 160 48" fill="none" xmlns="http://www.w3.org/2000/svg">
<path fill-rule="evenodd" clip-rule="evenodd" d="M101.094 10.0554L101.139 38.3267C102.918 39.0535 104.866 39.4545 106.91 39.4545C115.345 39.4545 122.183 32.6167 122.183 24.1818C122.183 15.7469 115.345 8.90909 106.91 8.90909C104.849 8.90909 102.885 9.31689 101.094 10.0554ZM99.0045 7.80457C101.397 6.6478 104.08 6 106.91 6C116.952 6 125.092 14.1403 125.092 24.1818C125.092 34.2233 116.952 42.3636 106.91 42.3636C104.101 42.3636 101.436 41.7252 99.0568 40.5842L98.2327 40.189L98.1817 8.20244L99.0045 7.80457Z" fill="#E0E0EF"/>
<path fill-rule="evenodd" clip-rule="evenodd" d="M52.3637 8.91189C43.9288 8.91189 37.091 15.7563 37.091 24.1993C37.091 31.6932 43.6369 37.6152 50.9091 37.6152C51.7125 37.6152 52.3637 38.267 52.3637 39.0711C52.3637 39.8752 51.7125 40.527 50.9091 40.527C42.1814 40.527 34.1819 33.4487 34.1819 24.1993C34.1819 14.1481 42.3222 6 52.3637 6C62.4052 6 70.5455 14.1481 70.5455 24.1993C70.5455 33.8523 63.0383 41.749 53.548 42.3605C52.7464 42.4122 52.0547 41.8036 52.0031 41.0011C51.9515 40.1987 52.5595 39.5063 53.3612 39.4547C61.3304 38.9412 67.6364 32.3068 67.6364 24.1993C67.6364 15.7563 60.7986 8.91189 52.3637 8.91189Z" fill="#E0E0EF"/>
<path fill-rule="evenodd" clip-rule="evenodd" d="M18.1818 8.90909C9.74692 8.90909 2.90909 15.7469 2.90909 24.1818C2.90909 32.6167 9.74692 39.4545 18.1818 39.4545C20.2442 39.4545 22.2083 39.0465 24 38.3076V24.5454C24 23.7421 24.6512 23.0909 25.4545 23.0909C26.2578 23.0909 26.9091 23.7421 26.9091 24.5454V40.1619L26.0877 40.559C23.6955 41.7158 21.0123 42.3636 18.1818 42.3636C8.14027 42.3636 0 34.2233 0 24.1818C0 14.1403 8.14027 6 18.1818 6C21.0123 6 23.6955 6.6478 26.0877 7.80457C26.8109 8.15428 27.1137 9.02406 26.764 9.74726C26.4143 10.4705 25.5445 10.7733 24.8213 10.4235C22.8154 9.45357 20.5642 8.90909 18.1818 8.90909Z" fill="#E0E0EF"/>
<path fill-rule="evenodd" clip-rule="evenodd" d="M79.2723 6C80.0756 6 80.7269 6.65122 80.7269 7.45454V39.4545H89.4541C90.2575 39.4545 90.9087 40.1057 90.9087 40.9091C90.9087 41.7124 90.2575 42.3636 89.4541 42.3636H77.8178V7.45454C77.8178 6.65122 78.469 6 79.2723 6Z" fill="#E0E0EF"/>
<path fill-rule="evenodd" clip-rule="evenodd" d="M133.818 6C134.621 6 135.272 6.65122 135.272 7.45454V40.9091C135.272 41.7124 134.621 42.3636 133.818 42.3636C133.014 42.3636 132.363 41.7124 132.363 40.9091V7.45454C132.363 6.65122 133.014 6 133.818 6Z" fill="#E0E0EF"/>
<path fill-rule="evenodd" clip-rule="evenodd" d="M142.546 6H158.546C159.349 6 160.001 6.65122 160.001 7.45454C160.001 8.25787 159.349 8.90909 158.546 8.90909H145.455V22.7273H158.546C159.349 22.7273 160.001 23.3785 160.001 24.1818C160.001 24.9851 159.349 25.6364 158.546 25.6364H145.455V39.4545H158.546C159.349 39.4545 160.001 40.1057 160.001 40.9091C160.001 41.7124 159.349 42.3636 158.546 42.3636H142.546V6Z" fill="#E0E0EF"/>
</svg>
